<svg xmlns="http://www.w3.org/2000/svg" viewBox="0 0 1024 1024"><path d="M512.973,0C230.2-.54.536,228.252,0,511.021c-.489,255.554,186.337,467.727,431.032,506.6l.684-357.777-130-.249.282-148,130,.248.216-112.8c.245-128.319,76.819-199.053,193.769-198.83,56.019.107,114.592,10.219,114.592,10.219l-.241,126-64.563-.123c-63.6-.122-83.512,39.307-83.59,79.8l-.183,96.043,142,.271L711.011,660.381l-119.3-.228-.684,357.777c244.842-37.94,432.478-249.4,432.966-504.951C1024.534,230.209,795.742.541,512.973,0Z"/></svg>