<?xml version="1.0" encoding="utf-8"?>
<!-- Generator: Adobe Illustrator 18.1.1, SVG Export Plug-In . SVG Version: 6.00 Build 0)  -->
<svg version="1.1" baseProfile="tiny"
	 id="svg2" inkscape:output_extension="org.inkscape.output.svg.inkscape" inkscape:export-ydpi="90" inkscape:version="0.46" inkscape:export-xdpi="90" sodipodi:version="0.32" sodipodi:docname="papapishu_rocket.svg" xmlns:inkscape="http://www.inkscape.org/namespaces/inkscape" xmlns:svg="http://www.w3.org/2000/svg" xmlns:sodipodi="http://sodipodi.sourceforge.net/DTD/sodipodi-0.dtd" xmlns:rdf="http://www.w3.org/1999/02/22-rdf-syntax-ns#" xmlns:cc="http://creativecommons.org/ns#" xmlns:dc="http://purl.org/dc/elements/1.1/"
	 xmlns="http://www.w3.org/2000/svg" xmlns:xlink="http://www.w3.org/1999/xlink" x="0px" y="0px" width="128px" height="128px"
	 viewBox="14 -14 128 128" xml:space="preserve">
<defs>
	
	
		<inkscape:perspective  inkscape:persp3d-origin="279.81235 : 124.43199 : 1" sodipodi:type="inkscape:persp3d" inkscape:vp_x="0 : 186.64798 : 1" inkscape:vp_y="0 : 1000 : 0" id="perspective4876" inkscape:vp_z="559.62469 : 186.64798 : 1">
		</inkscape:perspective>
</defs>
<sodipodi:namedview  inkscape:window-y="22" inkscape:window-x="0" inkscape:window-height="744" inkscape:window-width="1280" inkscape:current-layer="layer1" inkscape:document-units="px" inkscape:pageshadow="2" inkscape:pageopacity="0.0" inkscape:zoom="2.9775825" pagecolor="#ffffff" inkscape:cy="73.97559" showgrid="true" inkscape:cx="58.84144" bordercolor="#666666" id="base" gridtolerance="3" borderopacity="1.0" guidetolerance="10" objecttolerance="10" borderlayer="true">
	<inkscape:grid  type="xygrid" id="grid3299" spacingy="4px" visible="true" enabled="true" spacingx="4px"></inkscape:grid>
</sodipodi:namedview>
<g id="layer1" transform="translate(-66.38047,-391.3222)" inkscape:groupmode="layer" inkscape:label="Layer 1">
	<path id="path3297" sodipodi:nodetypes="cccc" fill="#FFFF00" stroke="#000000" stroke-width="6" stroke-linejoin="round" d="
		M107.6,457.5l23.3,22.5c29.9-25.1,68-46.9,70.1-95.7C152.3,388,130.8,426.1,107.6,457.5z"/>
	
		<path id="path3301" sodipodi:ry="8.6913204" sodipodi:cy="36.691319" sodipodi:rx="8.5918207" sodipodi:cx="60.59182" sodipodi:type="arc" fill="#008080" stroke="#000000" stroke-width="3.6104" stroke-linejoin="round" d="
		M186.2,409.5c-2.8,2.9-7.3,3-10.2,0.2c-2.8-2.7-2.9-7.3-0.1-10.2c0,0,0,0,0,0c2.8-2.9,7.3-3,10.2-0.2
		C188.9,402,189,406.6,186.2,409.5C186.2,409.5,186.2,409.5,186.2,409.5z"/>
	
		<path id="path3303" sodipodi:ry="8.6913204" sodipodi:cy="36.691319" sodipodi:rx="8.5918207" sodipodi:cx="60.59182" sodipodi:type="arc" fill="#008080" stroke="#000000" stroke-width="3.6104" stroke-linejoin="round" d="
		M172,424.1c-2.8,2.9-7.3,3-10.2,0.2c-2.8-2.7-2.9-7.3-0.1-10.2c0,0,0,0,0,0c2.8-2.9,7.3-3,10.2-0.2
		C174.7,416.7,174.8,421.2,172,424.1C172,424.1,172,424.1,172,424.1z"/>
	
		<path id="path3305" sodipodi:ry="8.6913204" sodipodi:cy="36.691319" sodipodi:rx="8.5918207" sodipodi:cx="60.59182" sodipodi:type="arc" fill="#008080" stroke="#000000" stroke-width="3.6104" stroke-linejoin="round" d="
		M157.6,438.9c-2.8,2.9-7.3,3-10.2,0.2s-2.9-7.3-0.1-10.2c0,0,0,0,0,0c2.8-2.9,7.3-3,10.2-0.2C160.4,431.5,160.4,436.1,157.6,438.9
		C157.6,438.9,157.6,438.9,157.6,438.9z"/>
	<path id="path3307" sodipodi:nodetypes="ccscc" fill="#FF0000" stroke="#000000" stroke-width="6" stroke-linejoin="round" d="
		M107.6,457.5l-19.8,6.9c4.3-12.7,11-29.1,20.2-34.7c6-3.7,20.3-0.9,20.3-0.9L107.6,457.5z"/>
	<path id="path3309" sodipodi:nodetypes="ccscc" fill="#FF0000" stroke="#000000" stroke-width="6" stroke-linejoin="round" d="
		M131.6,479.3l-6.2,20c12.5-4.7,28.7-12,34-21.3c3.5-6.1,0.3-20.3,0.3-20.3L131.6,479.3z"/>
</g>
</svg>
