<?xml version="1.0" encoding="utf-8"?>
<!-- Generator: Adobe Illustrator 21.0.2, SVG Export Plug-In . SVG Version: 6.00 Build 0)  -->
<svg version="1.1" id="レイヤー_1" xmlns="http://www.w3.org/2000/svg" xmlns:xlink="http://www.w3.org/1999/xlink" viewBox="0 0 512 365.14" enable-background="new 0 0 512 365.14" xml:space="preserve">
<path fill="var(--logo-paint,#3cb7a6)" d="M66.66,326.19l106.58-168.07l45.09,22.55l71.74-71.74l194.72,250.06c0,0-51.24,6.15-106.58,6.15
	s-51.73-21.79-145.53-40.99S66.66,326.19,66.66,326.19z"/>
<path fill="var(--logo-line,#000)" d="M316.69,131.22c-0.58,9.31-0.8,18.66-1.8,27.93c-3.37,31.36-21.82,51.32-48.34,66.46c-21.83,12.47-46.98,12.77-69.54,22
	c-15.12,6.19-28.44,14.25-37.29,28.82c-6.1,10.04-12.95,19.84-20.83,28.5c-3.79,4.16-10.77,7.58-16.27,7.54
	c-9.95-0.07-13.34-7.6-7.28-15.53c14.65-19.19,28.91-38.9,45.54-56.28c12.56-13.12,30.46-18.17,48.39-22.29
	c20.01-4.6,40.9-7.68,57.69-21.26c16.85-13.62,27.27-30.83,25.65-53.01c-1.57-21.45,0.06-43.61-14.63-62.49
	c-10.2-13.11-18.78-14.23-28.92-1.21c-15.21,19.53-30.49,39.01-45.74,58.51c-4.91,6.29-14.75,7.62-22.22,3.23
	c-4.27-2.51-9.31-3.97-13.06-7.05c-7.48-6.13-12.19-1.95-15.75,3.92c-17.63,29.07-34.75,58.45-52.39,87.52
	c-14.64,24.12-29.82,47.92-44.59,71.96c-4.61,7.5-8.72,15.31-12.92,23.05c-7.5,13.87-16.56,18.51-31.7,16.07
	c-10.24-1.65-13.4-7.49-8.33-16.74c9.34-17.02,18.99-33.87,28.7-50.68c26.07-45.15,52.11-90.31,78.44-135.31
	c8.76-14.96,18.12-29.6,27.71-44.05c6.63-10,14.29-10.42,25.15-2.72c5.53,3.92,10.95,8.82,17.19,10.63
	c3.82,1.11,11.03-1.38,13.41-4.66c20.81-28.6,40.59-57.96,61.33-86.62c7.62-10.54,13.93-9.63,21.92,0.71
	c16.83,21.79,34.01,43.31,50.69,65.2c16.68,21.88,33.01,44.03,49.37,66.17c20.41,27.63,40.74,55.33,61.01,83.06
	c24.1,32.97,48.22,65.93,71.96,99.15c2.29,3.2,3.43,8.73,2.32,12.32c-0.71,2.31-6.4,3.9-10.04,4.35
	c-16.09,1.98-27.45-4.45-37.19-17.91c-28.6-39.51-58.48-78.1-87.77-117.12c-15.94-21.24-31.63-42.67-47.63-63.86
	c-2.69-3.56-6.4-6.34-9.64-9.49C318.43,130.45,317.56,130.83,316.69,131.22z"/>
</svg>