<svg xmlns="http://www.w3.org/2000/svg" xmlns:xlink="http://www.w3.org/1999/xlink" width="512" height="512" viewBox="0 0 512 512"><defs><linearGradient id="favgrad1" x1="379.148" y1="37.505" x2="126.852" y2="474.495" gradientUnits="userSpaceOnUse"><stop offset="0" stop-color="#45c5d3"/><stop offset="0.5" stop-color="#1f359f"/><stop offset="1" stop-color="#e528e3"/></linearGradient><linearGradient id="favgrad2" x1="30.091" y1="238.558" x2="483" y2="238.558" gradientUnits="userSpaceOnUse"><stop offset="0.006" stop-color="#45c5d3"/><stop offset="0.506" stop-color="#1f359f"/><stop offset="1" stop-color="#e528e3"/></linearGradient></defs><ellipse cx="253" cy="256" rx="250" ry="253" fill="#fff"/><path d="M253,18a230.972,230.972,0,0,1,91.409,18.672,234.089,234.089,0,0,1,74.7,50.973A240.642,240.642,0,0,1,469.514,348.7a237.418,237.418,0,0,1-50.407,75.66,234.089,234.089,0,0,1-74.7,50.973,233.083,233.083,0,0,1-182.818,0,234.089,234.089,0,0,1-74.7-50.973,240.642,240.642,0,0,1-50.407-261.05,237.418,237.418,0,0,1,50.407-75.66,234.089,234.089,0,0,1,74.7-50.973A230.972,230.972,0,0,1,253,18m0-15C114.929,3,3,116.272,3,256S114.929,509,253,509,503,395.728,503,256,391.071,3,253,3Z" fill="url(#favgrad1)"/><polygon points="278.405 160.617 372.98 316.451 483 365.879 421.922 294.61 308.355 108.366 207.292 108.366 93.725 294.549 30.091 368.75 145.121 316.329 162.875 294.84 208.721 323.519 253.756 283.193 333.219 317.282 257.331 230.775 215.066 268.101 189.902 245.881 236.898 160.617 278.405 160.617" fill="url(#favgrad2)"/></svg>