<svg xmlns="http://www.w3.org/2000/svg" width="512" height="512"><defs><linearGradient id="a" x1="379.148" x2="126.852" y1="37.505" y2="474.495" gradientUnits="userSpaceOnUse"><stop offset="0" stop-color="#45c5d3"/><stop offset=".5" stop-color="#1f359f"/><stop offset="1" stop-color="#e528e3"/></linearGradient><linearGradient id="b" x1="30.091" x2="483" y1="238.558" y2="238.558" gradientUnits="userSpaceOnUse"><stop offset=".006" stop-color="#45c5d3"/><stop offset=".506" stop-color="#1f359f"/><stop offset="1" stop-color="#e528e3"/></linearGradient></defs><ellipse cx="253" cy="256" fill="#fff" rx="250" ry="253"/><path fill="url(#a)" d="M253 18a231 231 0 0 1 91.409 18.672 234.1 234.1 0 0 1 74.7 50.973A240.64 240.64 0 0 1 469.514 348.7a237.4 237.4 0 0 1-50.407 75.66 234.1 234.1 0 0 1-74.7 50.973 233.08 233.08 0 0 1-182.818 0 234.1 234.1 0 0 1-74.7-50.973 240.64 240.64 0 0 1-50.407-261.05 237.4 237.4 0 0 1 50.407-75.66 234.1 234.1 0 0 1 74.7-50.973A231 231 0 0 1 253 18m0-15C114.929 3 3 116.272 3 256s111.929 253 250 253 250-113.272 250-253S391.071 3 253 3"/><path fill="url(#b)" d="m278.405 160.617 94.575 155.834L483 365.879l-61.078-71.269-113.567-186.244H207.292L93.725 294.549 30.091 368.75l115.03-52.421 17.754-21.489 45.846 28.679 45.035-40.326 79.463 34.089-75.888-86.507-42.265 37.326-25.164-22.22 46.996-85.264z"/></svg>